<svg width="30" height="30" viewBox="0 0 30 30" fill="none" xmlns="http://www.w3.org/2000/svg">
<path fill-rule="evenodd" clip-rule="evenodd" d="M13.3387 3.55372C13.7964 3.14675 14.3875 2.92194 15 2.92194C15.6124 2.92194 16.2035 3.14675 16.6612 3.55372L21.5787 7.92496L21.8912 6.04497C21.9181 5.88303 21.9767 5.72798 22.0635 5.58867C22.1504 5.44937 22.2638 5.32853 22.3973 5.23306C22.5309 5.13759 22.6819 5.06935 22.8418 5.03226C23.0018 4.99516 23.1674 4.98992 23.3293 5.01684C23.4913 5.04376 23.6463 5.10231 23.7856 5.18916C23.9249 5.276 24.0458 5.38943 24.1413 5.52297C24.2367 5.65651 24.305 5.80755 24.3421 5.96746C24.3792 6.12738 24.3844 6.29303 24.3575 6.45496L23.7875 9.88746L27.0812 12.8162C27.3164 13.0396 27.4555 13.3457 27.4692 13.6697C27.4829 13.9938 27.3701 14.3105 27.1546 14.5529C26.9391 14.7954 26.6378 14.9445 26.3143 14.9689C25.9909 14.9933 25.6706 14.8911 25.4212 14.6837L24.8412 14.1687L23.8575 23.9987C23.7958 24.6158 23.5069 25.1879 23.047 25.604C22.587 26.02 21.9889 26.2502 21.3687 26.25H8.63122C8.01126 26.2499 7.41342 26.0196 6.95376 25.6036C6.4941 25.1876 6.20541 24.6156 6.14372 23.9987L5.16122 14.1687L4.57997 14.6837C4.33054 14.8911 4.01028 14.9933 3.68684 14.9689C3.3634 14.9445 3.06212 14.7954 2.84662 14.5529C2.63113 14.3105 2.51831 13.9938 2.532 13.6697C2.54568 13.3457 2.6848 13.0396 2.91997 12.8162L13.3387 3.55372Z" fill="#2A68F1"/>
</svg>
