<svg width="20" height="20" viewBox="0 0 20 20" fill="none" xmlns="http://www.w3.org/2000/svg">
<path d="M18.3332 15.5042C18.3332 15.67 18.2673 15.8289 18.1501 15.9461C18.0329 16.0633 17.8739 16.1292 17.7082 16.1292H13.4582C13.319 16.6483 13.0124 17.1069 12.586 17.434C12.1596 17.7611 11.6372 17.9384 11.0998 17.9384C10.5624 17.9384 10.04 17.7611 9.61365 17.434C9.18727 17.1069 8.88071 16.6483 8.7415 16.1292H2.2915C2.12574 16.1292 1.96677 16.0633 1.84956 15.9461C1.73235 15.8289 1.6665 15.67 1.6665 15.5042C1.6665 15.3384 1.73235 15.1795 1.84956 15.0622C1.96677 14.945 2.12574 14.8792 2.2915 14.8792H8.7415C8.88071 14.3601 9.18727 13.9015 9.61365 13.5744C10.04 13.2473 10.5624 13.07 11.0998 13.07C11.6372 13.07 12.1596 13.2473 12.586 13.5744C13.0124 13.9015 13.319 14.3601 13.4582 14.8792H17.7082C17.8739 14.8792 18.0329 14.945 18.1501 15.0622C18.2673 15.1795 18.3332 15.3384 18.3332 15.5042ZM18.3332 4.49586C18.3332 4.66162 18.2673 4.82059 18.1501 4.9378C18.0329 5.05501 17.8739 5.12086 17.7082 5.12086H15.6665C15.5273 5.63992 15.2207 6.09856 14.7944 6.42566C14.368 6.75277 13.8456 6.93007 13.3082 6.93007C12.7708 6.93007 12.2484 6.75277 11.822 6.42566C11.3956 6.09856 11.089 5.63992 10.9498 5.12086H2.2915C2.20943 5.12086 2.12816 5.10469 2.05233 5.07328C1.9765 5.04187 1.9076 4.99584 1.84956 4.9378C1.79153 4.87976 1.74549 4.81086 1.71408 4.73503C1.68267 4.65921 1.6665 4.57793 1.6665 4.49586C1.6665 4.41378 1.68267 4.33251 1.71408 4.25668C1.74549 4.18085 1.79153 4.11195 1.84956 4.05391C1.9076 3.99588 1.9765 3.94984 2.05233 3.91843C2.12816 3.88702 2.20943 3.87086 2.2915 3.87086H10.9498C11.089 3.35179 11.3956 2.89315 11.822 2.56605C12.2484 2.23894 12.7708 2.06165 13.3082 2.06165C13.8456 2.06165 14.368 2.23894 14.7944 2.56605C15.2207 2.89315 15.5273 3.35179 15.6665 3.87086H17.7082C17.7906 3.86974 17.8723 3.88514 17.9487 3.91615C18.025 3.94716 18.0943 3.99316 18.1526 4.05142C18.2109 4.10968 18.2569 4.17902 18.2879 4.25536C18.3189 4.33169 18.3343 4.41347 18.3332 4.49586ZM18.3332 9.99586C18.3343 10.0782 18.3189 10.16 18.2879 10.2364C18.2569 10.3127 18.2109 10.382 18.1526 10.4403C18.0943 10.4986 18.025 10.5446 17.9487 10.5756C17.8723 10.6066 17.7906 10.622 17.7082 10.6209H7.95817C7.81897 11.1399 7.51241 11.5986 7.08602 11.9257C6.65964 12.2528 6.13724 12.4301 5.59984 12.4301C5.06243 12.4301 4.54004 12.2528 4.11365 11.9257C3.68727 11.5986 3.38071 11.1399 3.2415 10.6209H2.2915C2.12574 10.6209 1.96677 10.555 1.84956 10.4378C1.73235 10.3206 1.6665 10.1616 1.6665 9.99586C1.6665 9.8301 1.73235 9.67113 1.84956 9.55392C1.96677 9.4367 2.12574 9.37086 2.2915 9.37086H3.2415C3.38071 8.85179 3.68727 8.39315 4.11365 8.06605C4.54004 7.73894 5.06243 7.56165 5.59984 7.56165C6.13724 7.56165 6.65964 7.73894 7.08602 8.06605C7.51241 8.39315 7.81897 8.85179 7.95817 9.37086H17.7082C17.8739 9.37086 18.0329 9.4367 18.1501 9.55392C18.2673 9.67113 18.3332 9.8301 18.3332 9.99586Z" fill="#30353C"/>
</svg>
